<svg width="62" height="62" viewBox="0 0 62 62" fill="none" xmlns="http://www.w3.org/2000/svg">
<path d="M29.1031 56.1875C43.0138 56.1875 54.2906 44.9107 54.2906 31C54.2906 17.0893 43.0138 5.8125 29.1031 5.8125C15.1925 5.8125 3.91565 17.0893 3.91565 31C3.91565 44.9107 15.1925 56.1875 29.1031 56.1875Z" fill="black"/>
<path d="M29.1031 56.6719C14.9478 56.6719 3.43127 45.1554 3.43127 31C3.43127 16.8446 14.9478 5.32812 29.1031 5.32812C43.2585 5.32812 54.775 16.8446 54.775 31C54.775 45.1554 43.2585 56.6719 29.1031 56.6719ZM29.1031 6.29688C15.4816 6.29688 4.40002 17.3784 4.40002 31C4.40002 44.6216 15.4816 55.7031 29.1031 55.7031C42.7247 55.7031 53.8063 44.6216 53.8063 31C53.8063 17.3784 42.7247 6.29688 29.1031 6.29688Z" fill="black"/>
<path d="M32.9781 56.1875C46.8888 56.1875 58.1656 44.9107 58.1656 31C58.1656 17.0893 46.8888 5.8125 32.9781 5.8125C19.0675 5.8125 7.79065 17.0893 7.79065 31C7.79065 44.9107 19.0675 56.1875 32.9781 56.1875Z" fill="white"/>
<path d="M32.9781 56.6719C18.8228 56.6719 7.30627 45.1554 7.30627 31C7.30627 16.8446 18.8228 5.32812 32.9781 5.32812C47.1335 5.32812 58.65 16.8446 58.65 31C58.65 45.1554 47.1335 56.6719 32.9781 56.6719ZM32.9781 6.29688C19.3566 6.29688 8.27502 17.3784 8.27502 31C8.27502 44.6216 19.3566 55.7031 32.9781 55.7031C46.5997 55.7031 57.6813 44.6216 57.6813 31C57.6813 17.3784 46.5997 6.29688 32.9781 6.29688Z" fill="black"/>
<path d="M32.9781 52.3125C44.7487 52.3125 54.2906 42.7706 54.2906 31C54.2906 19.2294 44.7487 9.6875 32.9781 9.6875C21.2076 9.6875 11.6656 19.2294 11.6656 31C11.6656 42.7706 21.2076 52.3125 32.9781 52.3125Z" fill="white"/>
<path d="M32.9781 52.7969C20.9598 52.7969 11.1813 43.0193 11.1813 31C11.1813 18.9807 20.9598 9.20312 32.9781 9.20312C44.9965 9.20312 54.775 18.9807 54.775 31C54.775 43.0193 44.9965 52.7969 32.9781 52.7969ZM32.9781 10.1719C21.4936 10.1719 12.15 19.5155 12.15 31C12.15 42.4845 21.4936 51.8281 32.9781 51.8281C44.4627 51.8281 53.8063 42.4845 53.8063 31C53.8063 19.5155 44.4627 10.1719 32.9781 10.1719Z" fill="black"/>
<path d="M32.9781 50.8594C32.7108 50.8594 32.4938 50.6424 32.4938 50.375C32.4938 50.1076 32.7108 49.8906 32.9781 49.8906C43.3941 49.8906 51.8688 41.416 51.8688 31C51.8688 30.7326 52.0858 30.5156 52.3531 30.5156C52.6205 30.5156 52.8375 30.7326 52.8375 31C52.8375 41.9508 43.9289 50.8594 32.9781 50.8594Z" fill="black"/>
<path d="M13.6031 31.4844C13.3358 31.4844 13.1188 31.2674 13.1188 31C13.1188 20.0492 22.0274 11.1406 32.9781 11.1406C33.2455 11.1406 33.4625 11.3576 33.4625 11.625C33.4625 11.8924 33.2455 12.1094 32.9781 12.1094C22.5622 12.1094 14.0875 20.584 14.0875 31C14.0875 31.2674 13.8705 31.4844 13.6031 31.4844Z" fill="black"/>
<path d="M17.4781 31.4844H11.6656C11.3983 31.4844 11.1813 31.2674 11.1813 31C11.1813 30.7326 11.3983 30.5156 11.6656 30.5156H17.4781C17.7455 30.5156 17.9625 30.7326 17.9625 31C17.9625 31.2674 17.7455 31.4844 17.4781 31.4844Z" fill="black"/>
<path d="M54.2906 31.4844H48.4781C48.2108 31.4844 47.9938 31.2674 47.9938 31C47.9938 30.7326 48.2108 30.5156 48.4781 30.5156H54.2906C54.558 30.5156 54.775 30.7326 54.775 31C54.775 31.2674 54.558 31.4844 54.2906 31.4844Z" fill="black"/>
<path d="M32.9781 15.9844C32.7108 15.9844 32.4938 15.7674 32.4938 15.5V9.6875C32.4938 9.42013 32.7108 9.20312 32.9781 9.20312C33.2455 9.20312 33.4625 9.42013 33.4625 9.6875V15.5C33.4625 15.7674 33.2455 15.9844 32.9781 15.9844Z" fill="black"/>
<path d="M32.9781 52.7969C32.7108 52.7969 32.4938 52.5799 32.4938 52.3125V46.5C32.4938 46.2326 32.7108 46.0156 32.9781 46.0156C33.2455 46.0156 33.4625 46.2326 33.4625 46.5V52.3125C33.4625 52.5799 33.2455 52.7969 32.9781 52.7969Z" fill="black"/>
<path d="M25.2281 40.2031C24.8561 40.2031 24.4841 40.0617 24.2003 39.7778C23.6326 39.2111 23.6326 38.2898 24.2003 37.7231L31.525 30.3984V15.5C31.525 14.6969 32.176 14.0469 32.9781 14.0469C33.7803 14.0469 34.4313 14.6969 34.4313 15.5V31C34.4313 31.3856 34.2782 31.7547 34.006 32.0278L26.256 39.7778C25.9712 40.0617 25.5992 40.2031 25.2281 40.2031Z" fill="black"/>
<path d="M25.2281 40.6875C24.7108 40.6875 24.2245 40.486 23.8583 40.1198C23.4921 39.7546 23.2906 39.2673 23.2906 38.75C23.2906 38.2327 23.4921 37.7454 23.8583 37.3802L31.0406 30.1979V15.5C31.0406 14.4315 31.9096 13.5625 32.9781 13.5625C34.0467 13.5625 34.9156 14.4315 34.9156 15.5V31C34.9156 31.5173 34.7142 32.0036 34.348 32.3698L26.598 40.1198C26.2318 40.486 25.7455 40.6875 25.2281 40.6875ZM32.9781 14.5312C32.4434 14.5312 32.0094 14.9662 32.0094 15.5V30.3984C32.0094 30.5273 31.9581 30.6503 31.868 30.7413L24.5432 38.0661C24.3611 38.2492 24.2594 38.4923 24.2594 38.751C24.2594 39.0096 24.3601 39.2528 24.5432 39.4359C24.9104 39.8021 25.5459 39.8021 25.9131 39.4359L33.6631 31.6859C33.8452 31.5028 33.9469 31.2596 33.9469 31.001V15.5C33.9469 14.9662 33.5129 14.5312 32.9781 14.5312Z" fill="black"/>
<path d="M32.9781 33.9062C34.5832 33.9062 35.8844 32.6051 35.8844 31C35.8844 29.3949 34.5832 28.0938 32.9781 28.0938C31.3731 28.0938 30.0719 29.3949 30.0719 31C30.0719 32.6051 31.3731 33.9062 32.9781 33.9062Z" fill="white"/>
<path d="M32.9781 34.3906C31.1085 34.3906 29.5875 32.8697 29.5875 31C29.5875 29.1303 31.1085 27.6094 32.9781 27.6094C34.8478 27.6094 36.3688 29.1303 36.3688 31C36.3688 32.8697 34.8478 34.3906 32.9781 34.3906ZM32.9781 28.5781C31.6422 28.5781 30.5563 29.6651 30.5563 31C30.5563 32.3349 31.6422 33.4219 32.9781 33.4219C34.3141 33.4219 35.4 32.3349 35.4 31C35.4 29.6651 34.3141 28.5781 32.9781 28.5781Z" fill="black"/>
</svg>
