<svg width="54" height="54" viewBox="0 0 54 54" fill="none" xmlns="http://www.w3.org/2000/svg">
<path d="M49.2678 37.3379L35.1152 12.8249C34.9198 12.4863 35.0356 12.0537 35.3742 11.8582L36.4466 11.2391C36.7852 11.0437 37.2178 11.1595 37.4133 11.4981L51.566 36.0111C51.7613 36.3497 51.6455 36.7823 51.3069 36.9779L50.2345 37.597C49.896 37.7923 49.4631 37.6763 49.2678 37.3379Z" fill="white"/>
<path d="M39.2588 14.6945L37.4133 11.498C37.218 11.1594 36.7852 11.0436 36.4466 11.2389L35.3742 11.858C35.0356 12.0534 34.9198 12.4862 35.1152 12.8248L36.9607 16.0213L39.2588 14.6945Z" fill="white"/>
<path d="M49.8824 38.1137C49.4915 38.1137 49.1112 37.9109 48.9024 37.549H48.9022L34.7495 13.0359C34.5987 12.7746 34.5589 12.4702 34.6369 12.1789C34.7149 11.8874 34.902 11.6437 35.1634 11.4929L36.2356 10.8738C36.4967 10.723 36.8009 10.6827 37.0926 10.761C37.3842 10.8392 37.6276 11.0261 37.7784 11.2875L51.9312 35.8003C52.2424 36.3399 52.057 37.032 51.5176 37.3431L50.4452 37.9626C50.268 38.0647 50.0741 38.1137 49.8824 38.1137ZM49.6329 37.1271C49.7118 37.2634 49.8875 37.3106 50.0235 37.2317L51.0959 36.6124C51.2322 36.5337 51.2792 36.3584 51.2006 36.222L37.0477 11.7091C37.0095 11.6431 36.9479 11.5956 36.8743 11.576C36.8009 11.5562 36.7237 11.5665 36.6577 11.6045L35.5853 12.2238C35.5193 12.262 35.4718 12.3236 35.452 12.3974C35.4321 12.4712 35.4425 12.5482 35.4807 12.6143L49.6329 37.1271Z" fill="black"/>
<path d="M6.82678 1.93657C6.03386 3.66921 4.71867 5.11287 3.08179 6.06694C2.78817 6.23801 2.78817 6.65335 3.08179 6.82442C4.71888 7.77828 6.03407 9.22172 6.82678 10.9546C6.98076 11.2912 7.46064 11.2912 7.61463 10.9546C8.40754 9.22172 9.72253 7.77807 11.3596 6.82442C11.6532 6.65335 11.6532 6.23801 11.3596 6.06694C9.72253 5.11308 8.40733 3.66943 7.61463 1.93657C7.46064 1.59992 6.98076 1.59992 6.82678 1.93657Z" fill="black"/>
<path d="M5.35309 34.0062C4.75044 35.3233 3.75081 36.4204 2.50649 37.1456C2.28332 37.2758 2.28332 37.5913 2.50649 37.7213C3.75081 38.4463 4.75044 39.5436 5.35309 40.8606C5.47016 41.1165 5.83487 41.1165 5.95194 40.8606C6.55459 39.5436 7.55422 38.4463 8.79855 37.7213C9.02172 37.5911 9.02172 37.2756 8.79855 37.1456C7.55422 36.4206 6.55459 35.3233 5.95194 34.0062C5.83487 33.7504 5.47016 33.7504 5.35309 34.0062Z" fill="black"/>
<path d="M46.4381 8.35963C45.8354 9.67672 44.8358 10.7738 43.5915 11.499C43.3683 11.6292 43.3683 11.9447 43.5915 12.0747C44.8358 12.7996 45.8354 13.8969 46.4381 15.214C46.5551 15.4699 46.9198 15.4699 47.0369 15.214C47.6396 13.8969 48.6392 12.7996 49.8835 12.0747C50.1067 11.9445 50.1067 11.6289 49.8835 11.499C48.6392 10.774 47.6396 9.67672 47.0369 8.35963C46.9198 8.10376 46.5553 8.10376 46.4381 8.35963Z" fill="black"/>
<path d="M43.1246 38.6433C42.5219 39.9604 41.5223 41.0575 40.278 41.7827C40.0548 41.9128 40.0548 42.2284 40.278 42.3583C41.5223 43.0833 42.5219 44.1806 43.1246 45.4977C43.2416 45.7536 43.6064 45.7536 43.7234 45.4977C44.3261 44.1806 45.3257 43.0833 46.57 42.3583C46.7932 42.2282 46.7932 41.9126 46.57 41.7827C45.3257 41.0577 44.3261 39.9604 43.7234 38.6433C43.6064 38.3874 43.2419 38.3874 43.1246 38.6433Z" fill="black"/>
<path d="M24.2872 12.3809C23.554 9.14851 22.1352 4.23008 19.9457 2.08717C19.2502 1.40648 18.0489 1.61826 17.6283 2.49576C15.6835 6.55187 17.3461 15.6618 17.5341 16.6473C18.8031 14.1914 21.387 12.5695 24.2872 12.3809Z" fill="white"/>
<path d="M32.2434 16.6471C32.4313 15.6616 34.0937 6.55184 32.1491 2.49551C31.7285 1.61801 30.527 1.40623 29.8317 2.08693C27.6422 4.22984 26.2235 9.14848 25.4902 12.3807C28.3902 12.5695 30.9744 14.1914 32.2434 16.6471Z" fill="white"/>
<path d="M22.5766 12.6655C22.0404 10.3222 21.1713 7.25769 20.0449 5.78956C19.6441 5.26707 18.9995 5.38076 18.8015 6.00873C18.1277 8.14637 18.6093 12.3556 18.9645 14.7198C19.9519 13.7529 21.1969 13.0405 22.5766 12.6655Z" fill="black"/>
<path d="M30.8128 14.7198C31.1682 12.3556 31.6498 8.14631 30.9758 6.00867C30.7778 5.3805 30.1331 5.26701 29.7324 5.78951C28.6059 7.25763 27.7369 10.3221 27.2007 12.6654C28.5806 13.0405 29.8254 13.7528 30.8128 14.7198Z" fill="black"/>
<path d="M36.4679 31.8252H24.8887H13.3095L12.0101 50.8766C11.9567 51.6577 12.6861 52.3159 13.6046 52.3159H24.8887H36.1728C37.0912 52.3159 37.8204 51.6575 37.7672 50.8766L36.4679 31.8252Z" fill="black"/>
<path d="M39.8425 31.8252H9.93493C9.03169 31.8252 8.29932 31.0928 8.29932 30.1896C8.29932 29.2863 9.03169 28.554 9.93493 28.554H39.8427C40.7459 28.554 41.4783 29.2863 41.4783 30.1896C41.4781 31.0928 40.7459 31.8252 39.8425 31.8252Z" fill="black"/>
<path d="M36.7693 36.2464L36.4679 31.8252H24.8887H13.3095L13.0081 36.2464H36.7693Z" fill="white"/>
<path d="M39.8427 32.247H9.93493C8.8005 32.247 7.87744 31.324 7.87744 30.1895C7.87744 29.0549 8.8005 28.1318 9.93493 28.1318H39.8427C40.9771 28.1318 41.9002 29.0549 41.9002 30.1895C41.9002 31.324 40.9771 32.247 39.8427 32.247ZM9.93493 28.9756C9.26562 28.9756 8.72119 29.5202 8.72119 30.1895C8.72119 30.8588 9.26562 31.4033 9.93493 31.4033H39.8427C40.512 31.4033 41.0564 30.8588 41.0564 30.1895C41.0564 29.5202 40.512 28.9756 39.8427 28.9756H9.93493Z" fill="black"/>
<path d="M36.1727 52.7377H13.6045C12.9987 52.7377 12.4306 52.5016 12.0459 52.0901C11.7206 51.7418 11.5582 51.3008 11.5892 50.8479L12.8886 31.7966C12.9035 31.5751 13.0875 31.4034 13.3094 31.4034H36.4676C36.6895 31.4034 36.8734 31.5751 36.8884 31.7966L38.1878 50.8479C38.2186 51.3005 38.0564 51.7416 37.7311 52.0901C37.3468 52.5014 36.7785 52.7377 36.1727 52.7377ZM13.7036 32.247L12.431 50.905C12.4121 51.1831 12.5466 51.3896 12.6627 51.5138C12.8884 51.7555 13.2316 51.8939 13.6047 51.8939H36.1729C36.546 51.8939 36.8892 51.7555 37.1149 51.5138C37.231 51.3896 37.3655 51.1833 37.3466 50.905L36.074 32.247H13.7036Z" fill="black"/>
<path d="M32.2959 16.7433C30.9653 14.0716 28.0872 12.3617 24.9211 12.3617H24.8561C21.6899 12.3617 18.8119 14.0716 17.4813 16.7433L15.9493 19.8196C15.546 20.6296 15.3369 21.5113 15.3369 22.4038C15.3369 25.8003 18.2978 28.5537 21.9502 28.5537H27.8265C31.4789 28.5537 34.4398 25.8003 34.4398 22.4038C34.4398 21.5113 34.231 20.6294 33.8275 19.8196L32.2959 16.7433Z" fill="white"/>
<path d="M26.1441 22.6048L26.0515 22.4933C25.9402 22.3593 25.7921 22.2844 25.6383 22.2844H24.8888H24.1394C23.9856 22.2844 23.8375 22.3591 23.7262 22.4933L23.6336 22.6048C23.5256 22.7348 23.4492 22.9069 23.4359 23.0946C23.4138 23.4058 23.5376 23.6848 23.7361 23.8279L24.3927 24.3014C24.7003 24.5231 25.0776 24.5231 25.3852 24.3014L26.0418 23.8279C26.2403 23.6848 26.3639 23.4058 26.342 23.0946C26.3283 22.9069 26.2521 22.7348 26.1441 22.6048Z" fill="black"/>
<path d="M29.2551 22.5454C28.555 22.5454 27.9875 21.978 27.9875 21.2779V19.4467C27.9875 18.7466 28.555 18.1792 29.2551 18.1792C29.9552 18.1792 30.5226 18.7466 30.5226 19.4467V21.2779C30.5228 21.9778 29.9552 22.5454 29.2551 22.5454Z" fill="black"/>
<path d="M20.5222 22.5454C19.8221 22.5454 19.2546 21.978 19.2546 21.2779V19.4467C19.2546 18.7466 19.8221 18.1792 20.5222 18.1792C21.2223 18.1792 21.7897 18.7466 21.7897 19.4467V21.2779C21.7897 21.9778 21.2223 22.5454 20.5222 22.5454Z" fill="black"/>
<path d="M27.8268 28.9756H21.9507C18.0713 28.9756 14.9153 26.0275 14.9153 22.404C14.9153 21.4527 15.1423 20.494 15.5717 19.6317L17.1038 16.5553C18.5 13.7516 21.5429 11.9398 24.8561 11.9398H24.9211C28.2341 11.9398 31.2773 13.7516 32.6737 16.5553L34.2057 19.6317C34.6352 20.494 34.8622 21.4527 34.8622 22.404C34.862 26.0277 31.7061 28.9756 27.8268 28.9756ZM24.8561 12.7836C21.8604 12.7836 19.1138 14.4118 17.8589 16.9314L16.3269 20.0078C15.9552 20.7538 15.759 21.5824 15.759 22.404C15.759 25.5624 18.5367 28.1318 21.9507 28.1318H27.8268C31.2408 28.1318 34.0184 25.5624 34.0184 22.404C34.0184 21.5824 33.822 20.7538 33.4506 20.0078L31.9185 16.9314C30.6635 14.4118 27.9168 12.7836 24.9211 12.7836H24.8561Z" fill="black"/>
<path d="M20.7564 28.5539H14.9396C14.4055 28.5539 13.9727 28.1211 13.9727 27.587V27.0407C13.9727 25.3644 15.3315 24.0055 17.0078 24.0055H18.6882C20.3645 24.0055 21.7233 25.3644 21.7233 27.0407V27.587C21.7233 28.1209 21.2905 28.5539 20.7564 28.5539Z" fill="white"/>
<path d="M34.8379 28.5539H29.0211C28.487 28.5539 28.0542 28.1211 28.0542 27.587V27.0407C28.0542 25.3644 29.4131 24.0055 31.0894 24.0055H32.7697C34.446 24.0055 35.8049 25.3644 35.8049 27.0407V27.587C35.8047 28.1209 35.3718 28.5539 34.8379 28.5539Z" fill="white"/>
<path d="M20.7564 28.9756H14.9396C14.1737 28.9756 13.5508 28.3527 13.5508 27.587V27.0407C13.5508 25.1344 15.1016 23.5836 17.0078 23.5836H18.6882C20.5944 23.5836 22.1452 25.1344 22.1452 27.0407V27.587C22.145 28.3527 21.5221 28.9756 20.7564 28.9756ZM17.0078 24.4274C15.5669 24.4274 14.3945 25.5998 14.3945 27.0407V27.587C14.3945 27.8874 14.639 28.1319 14.9396 28.1319H20.7564C21.0568 28.1319 21.3013 27.8874 21.3013 27.587V27.0407C21.3013 25.5998 20.1289 24.4274 18.688 24.4274H17.0078Z" fill="black"/>
<path d="M34.8377 28.9756H29.0209C28.255 28.9756 27.6321 28.3527 27.6321 27.587V27.0407C27.6321 25.1344 29.1831 23.5836 31.0893 23.5836H32.7697C34.6759 23.5836 36.2267 25.1344 36.2267 27.0407V27.587C36.2265 28.3527 35.6036 28.9756 34.8377 28.9756ZM31.0893 24.4274C29.6482 24.4274 28.4758 25.5998 28.4758 27.0407V27.587C28.4758 27.8874 28.7203 28.1319 29.0209 28.1319H34.8377C35.1383 28.1319 35.3828 27.8874 35.3828 27.587V27.0407C35.3828 25.5998 34.2104 24.4274 32.7695 24.4274H31.0893Z" fill="black"/>
<path d="M17.5342 17.069C17.5139 17.069 17.4937 17.0676 17.4732 17.0646C17.2952 17.0387 17.1532 16.9028 17.1195 16.7263C16.922 15.6904 15.248 6.48483 17.2477 2.31333C17.5042 1.77881 18.0136 1.39702 18.6108 1.29176C19.2079 1.18671 19.8173 1.37128 20.2407 1.78578C22.446 3.9443 23.8823 8.68828 24.6987 12.2877C24.7261 12.4082 24.6993 12.5345 24.6252 12.6334C24.5512 12.7324 24.4377 12.794 24.3145 12.802C21.558 12.9815 19.1035 14.5291 17.9086 16.841C17.8356 16.9823 17.69 17.069 17.5342 17.069ZM18.9485 2.10556C18.8854 2.10556 18.8215 2.11125 18.7574 2.12264C18.4226 2.18149 18.1497 2.38399 18.0088 2.67804C16.4362 5.95791 17.3135 12.7414 17.758 15.4779C19.1242 13.5776 21.318 12.2995 23.7674 12.0055C23.0774 9.08864 21.7038 4.39803 19.6505 2.38864C19.4625 2.20428 19.2136 2.10556 18.9485 2.10556Z" fill="black"/>
<path d="M32.2429 17.069C32.087 17.069 31.9415 16.9823 31.8685 16.8408C30.6737 14.5289 28.2193 12.9812 25.4628 12.8017C25.3396 12.7937 25.2261 12.7321 25.152 12.6332C25.078 12.5343 25.0512 12.4079 25.0786 12.2875C25.895 8.68783 27.3312 3.94384 29.5366 1.78553C29.9599 1.37104 30.5693 1.18647 31.1665 1.29152C31.7637 1.39677 32.2731 1.77878 32.5296 2.31309C34.5305 6.48733 32.8553 15.6905 32.6576 16.7262C32.6239 16.9028 32.4817 17.0388 32.3037 17.0646C32.2836 17.0675 32.2632 17.069 32.2429 17.069ZM26.0101 12.0055C28.4598 12.2997 30.6535 13.5776 32.0195 15.4781C32.464 12.7423 33.3423 5.9602 31.7687 2.67801C31.6278 2.38396 31.3549 2.18146 31.0201 2.12261C30.6856 2.06376 30.3597 2.16037 30.1268 2.3886C28.0739 4.39778 26.6999 9.0884 26.0101 12.0055Z" fill="black"/>
</svg>
