<svg width="54" height="54" viewBox="0 0 54 54" fill="none" xmlns="http://www.w3.org/2000/svg">
<path d="M23.7041 52.7079C22.9759 52.7079 22.3855 52.1177 22.3855 51.3893V50.0714H31.6142L31.6144 51.3893C31.6144 52.1175 31.024 52.7079 30.2959 52.7079H23.7041Z" fill="white"/>
<path d="M31.6143 50.0718H29.6367L29.6369 51.3897C29.6369 52.1179 29.0465 52.7083 28.3184 52.7083H30.2959C31.0241 52.7083 31.6145 52.1179 31.6145 51.3897L31.6143 50.0718Z" fill="white"/>
<path d="M22.3857 50.0718H24.3632L24.363 51.3897C24.363 52.1179 24.9532 52.7083 25.6816 52.7083H23.7041C22.9759 52.7083 22.3855 52.1179 22.3855 51.3897L22.3857 50.0718Z" fill="white"/>
<path d="M25.6814 5.24728C25.6814 5.97544 26.2716 6.56585 27 6.56585C27.7281 6.56585 28.3185 5.97544 28.3185 5.24728V2.61056C28.3185 1.88241 27.7283 1.29199 27 1.29199C26.2718 1.29199 25.6814 1.88241 25.6814 2.61056V5.24728Z" fill="white"/>
<path d="M16.64 8.37645C17.004 9.00716 17.8105 9.22316 18.441 8.85908C19.0717 8.495 19.2877 7.68859 18.9236 7.05788L17.6052 4.77449C17.2411 4.14378 16.4347 3.92778 15.804 4.29186C15.1733 4.65594 14.9573 5.46235 15.3214 6.09284L16.64 8.37645Z" fill="white"/>
<path d="M10.3743 15.6075C11.005 15.9716 11.8114 15.7556 12.1755 15.1249C12.5396 14.4942 12.3236 13.688 11.6929 13.3237L9.4095 12.0054C8.77879 11.6413 7.97259 11.8573 7.60851 12.488C7.24443 13.1187 7.46043 13.9249 8.09114 14.2892L10.3743 15.6075Z" fill="white"/>
<path d="M8.56369 25.0023C9.29184 25.0023 9.88226 24.4118 9.88226 23.6837C9.88226 22.9555 9.29184 22.3651 8.56369 22.3651H5.92697C5.19881 22.3651 4.6084 22.9555 4.6084 23.6837C4.6084 24.4118 5.19881 25.0023 5.92697 25.0023H8.56369Z" fill="white"/>
<path d="M11.6928 34.0437C12.3235 33.6797 12.5395 32.8732 12.1755 32.2427C11.8114 31.612 11.005 31.396 10.3743 31.7601L8.09065 33.0785C7.45994 33.4426 7.24394 34.249 7.60802 34.8795C7.9721 35.5102 8.77851 35.7262 9.40922 35.3621L11.6928 34.0437Z" fill="white"/>
<path d="M43.6258 31.7598C42.9951 31.3957 42.1887 31.6117 41.8248 32.2424C41.4607 32.8731 41.6767 33.6793 42.3074 34.0434L44.5908 35.3617C45.2215 35.7258 46.0277 35.5098 46.3918 34.8791C46.7559 34.2484 46.5399 33.442 45.9092 33.0781L43.6258 31.7598Z" fill="white"/>
<path d="M45.4365 22.3647C44.7083 22.3647 44.1179 22.9549 44.1179 23.6833C44.1179 24.4115 44.7081 25.0019 45.4365 25.0019H48.0732C48.8014 25.0019 49.3918 24.4115 49.3918 23.6833C49.3918 22.9552 48.8016 22.3647 48.0732 22.3647H45.4365Z" fill="white"/>
<path d="M42.307 13.3235C41.6763 13.6876 41.4603 14.494 41.8243 15.1247C42.1884 15.7554 42.9948 15.9714 43.6253 15.6073L45.9089 14.289C46.5396 13.9249 46.7556 13.1185 46.3915 12.488C46.0275 11.8573 45.2211 11.6413 44.5906 12.0054L42.307 13.3235Z" fill="white"/>
<path d="M35.0763 7.05804C34.7122 7.68874 34.9282 8.49516 35.5589 8.85923C36.1896 9.22331 36.9958 9.00731 37.3599 8.37661L38.6783 6.09321C39.0423 5.46251 38.8263 4.6563 38.1956 4.29223C37.5649 3.92815 36.7585 4.14415 36.3946 4.77485L35.0763 7.05804Z" fill="white"/>
<path d="M33.5918 40.8428H20.4082L20.408 48.7531C20.408 49.4813 20.9984 50.0717 21.7265 50.0717H32.2734C33.0016 50.0717 33.592 49.4813 33.592 48.7531L33.5918 40.8428Z" fill="white"/>
<path d="M33.5918 40.8428H30.9548L30.955 48.7531C30.955 49.4813 30.3648 50.0717 29.6365 50.0717H32.2734C33.0016 50.0717 33.592 49.4813 33.592 48.7531L33.5918 40.8428Z" fill="white"/>
<path d="M27.6591 40.8428H25.0222L25.0224 48.7531C25.0224 49.4813 24.432 50.0717 23.7039 50.0717H26.3408C27.0689 50.0717 27.6594 49.4813 27.6594 48.7531L27.6591 40.8428Z" fill="white"/>
<path d="M20.4082 40.8428H23.0451L23.0449 48.7531C23.0449 49.4813 23.6351 50.0717 24.3635 50.0717H21.7265C20.9984 50.0717 20.408 49.4813 20.408 48.7531L20.4082 40.8428Z" fill="white"/>
<path d="M41.4815 23.6836C41.4815 15.6857 34.998 9.20215 27 9.20215C19.0021 9.20215 12.5186 15.6857 12.5186 23.6836C12.5186 29.3068 15.7248 34.1793 20.4078 36.5783V40.843H21.7264H32.2733H33.5918V36.5785C38.2751 34.1795 41.4815 29.3068 41.4815 23.6836Z" fill="white"/>
<path d="M27 9.20215C26.5556 9.20215 26.116 9.22324 25.6816 9.26248C33.0615 9.92862 38.8448 16.1302 38.8448 23.6836C38.8448 29.307 35.6383 34.1795 30.9551 36.5783V40.8428H29.6367H32.2734H33.592V36.5783C38.2752 34.1795 41.4817 29.3068 41.4817 23.6836C41.4815 15.6857 34.9979 9.20215 27 9.20215Z" fill="white"/>
<path d="M26.9898 9.20215C27.4342 9.20215 27.8738 9.22324 28.3082 9.26248C20.9283 9.92862 15.145 16.1302 15.145 23.6836C15.145 29.307 18.3515 34.1795 23.0347 36.5783V40.8428H24.3533H21.7166H20.398V36.5783C15.7148 34.1795 12.5083 29.3068 12.5083 23.6836C12.5083 15.6857 18.9919 9.20215 26.9898 9.20215Z" fill="black"/>
<path d="M33.5918 42.1614C34.3199 42.1614 34.9103 41.571 34.9103 40.8429C34.9103 40.1147 34.3201 39.5243 33.5918 39.5243H20.4082C19.68 39.5243 19.0896 40.1147 19.0896 40.8429C19.0896 41.571 19.68 42.1614 20.4082 42.1614H33.5918Z" fill="white"/>
<path d="M33.5916 39.5244H30.9548C31.683 39.5244 32.2734 40.1148 32.2734 40.843C32.2734 41.5711 31.683 42.1616 30.9548 42.1616H33.5916C34.3197 42.1616 34.9101 41.5714 34.9101 40.843C34.9101 40.1146 34.3199 39.5244 33.5916 39.5244Z" fill="white"/>
<path d="M20.4082 42.1614H23.0449C22.3167 42.1614 21.7263 41.5712 21.7263 40.8429C21.7263 40.1145 22.3167 39.5243 23.0449 39.5243H20.4082C19.68 39.5243 19.0896 40.1147 19.0896 40.8429C19.0896 41.571 19.68 42.1614 20.4082 42.1614Z" fill="white"/>
<path d="M27 7.22503C28.0903 7.22503 28.9775 6.33783 28.9775 5.24728V2.61056C28.9775 1.52002 28.0903 0.632812 27 0.632812C25.9095 0.632812 25.0225 1.52002 25.0225 2.61056V5.24728C25.0225 6.33783 25.9095 7.22503 27 7.22503ZM26.3408 2.61056C26.3408 2.24691 26.6366 1.95117 27 1.95117C27.3634 1.95117 27.6592 2.24691 27.6592 2.61056V5.24728C27.6592 5.61073 27.3634 5.90667 27 5.90667C26.6366 5.90667 26.3408 5.61094 26.3408 5.24728V2.61056Z" fill="black"/>
<path d="M16.069 8.70619C16.435 9.33985 17.101 9.69464 17.7852 9.69464C18.1204 9.69464 18.46 9.60943 18.7707 9.43013C19.7151 8.88485 20.0399 7.67281 19.4947 6.72844L18.1763 4.44504C17.631 3.50067 16.4194 3.17583 15.4746 3.7211C14.5305 4.26638 14.2056 5.47842 14.7509 6.42279L16.069 8.70619ZM16.1338 4.8627C16.4485 4.6815 16.8527 4.78908 17.0345 5.10401L18.3529 7.38741C18.5347 7.70213 18.4265 8.10628 18.1116 8.28811C17.7968 8.46973 17.3925 8.36173 17.2109 8.0468L15.8925 5.76319C15.7107 5.44868 15.8189 5.04453 16.1338 4.8627Z" fill="black"/>
<path d="M7.76135 14.86L10.0448 16.1784C10.3496 16.3545 10.6877 16.4441 11.0305 16.4441C11.2022 16.4441 11.3751 16.4216 11.5456 16.376C12.0556 16.2393 12.4821 15.9122 12.7464 15.4546C13.0105 14.9971 13.0808 14.4641 12.9441 13.954C12.8074 13.4438 12.48 13.0172 12.0225 12.7532L9.7391 11.4348C8.79431 10.8891 7.58269 11.2144 7.03742 12.1587C6.77332 12.6163 6.70329 13.1491 6.83998 13.6593C6.97667 14.1694 7.30383 14.5959 7.76135 14.86ZM8.17922 12.8177C8.30114 12.6063 8.52326 12.488 8.75128 12.488C8.86308 12.488 8.97635 12.5165 9.07992 12.5762L11.3635 13.8945C11.516 13.9825 11.6251 14.1249 11.6707 14.2949C11.7162 14.4649 11.6928 14.6427 11.6048 14.7952C11.5167 14.9477 11.3745 15.0568 11.2045 15.1024C11.0345 15.1481 10.8569 15.1247 10.7044 15.0366L8.42096 13.7182C8.26845 13.6302 8.15939 13.4878 8.11362 13.3178C8.06785 13.1478 8.09126 12.97 8.17922 12.8177Z" fill="black"/>
<path d="M10.5415 23.6838C10.5415 22.5933 9.65427 21.7061 8.56393 21.7061H5.92721C4.83667 21.7061 3.94946 22.5933 3.94946 23.6838C3.94946 24.7744 4.83667 25.6613 5.92721 25.6613H8.56393C9.65427 25.6613 10.5415 24.7744 10.5415 23.6838ZM5.26761 23.6838C5.26761 23.3204 5.56335 23.0244 5.927 23.0244H8.56372C8.92717 23.0244 9.2229 23.3201 9.2229 23.6838C9.2229 24.0475 8.92717 24.343 8.56372 24.343H5.927C5.56356 24.343 5.26761 24.0472 5.26761 23.6838Z" fill="black"/>
<path d="M11.5458 30.9916C11.0356 30.8549 10.5027 30.9249 10.045 31.1892L7.7616 32.5076C7.30407 32.7717 6.97691 33.1982 6.84022 33.7082C6.70354 34.2185 6.77357 34.7513 7.03766 35.2089C7.40364 35.8427 8.06957 36.1973 8.75385 36.1973C9.08903 36.1973 9.42864 36.1121 9.73935 35.9328L12.0227 34.6144C12.4803 34.3503 12.8074 33.9238 12.9443 33.4138C13.081 32.9035 13.011 32.3705 12.7467 31.913C12.4824 31.4554 12.0559 31.1283 11.5458 30.9916ZM11.6707 33.0725C11.6251 33.2425 11.5161 33.3849 11.3634 33.4728L9.07996 34.7912C8.76545 34.9728 8.36108 34.8648 8.17947 34.5499C8.0915 34.3974 8.06809 34.2198 8.11365 34.0498C8.15922 33.8795 8.26848 33.7374 8.42078 33.6494L10.7044 32.331C10.8058 32.2722 10.9187 32.2424 11.0328 32.2424C11.09 32.2424 11.1478 32.25 11.2045 32.2652C11.3745 32.3108 11.5167 32.4198 11.6049 32.5723C11.6931 32.7249 11.7165 32.9025 11.6707 33.0725Z" fill="black"/>
<path d="M46.2388 32.5073L43.9554 31.1889C43.4977 30.9246 42.9653 30.8548 42.4546 30.9912C41.9443 31.1279 41.5178 31.4551 41.2539 31.9126C40.9896 32.3701 40.9196 32.9032 41.0563 33.4134C41.193 33.9237 41.5201 34.35 41.9777 34.6141L44.2613 35.9325C44.5661 36.1086 44.9042 36.1982 45.247 36.1982C45.4187 36.1982 45.5916 36.1757 45.7619 36.1299C46.2721 35.9932 46.6986 35.6658 46.9627 35.2083C47.2268 34.7508 47.2971 34.218 47.1604 33.7075C47.0235 33.1979 46.6963 32.7711 46.2388 32.5073ZM45.8209 34.5495C45.6393 34.8643 45.2352 34.9727 44.9202 34.7909L42.6368 33.4725C42.4843 33.3845 42.3753 33.2422 42.3297 33.0721C42.2839 32.9021 42.3076 32.7245 42.3955 32.572C42.4835 32.4195 42.6259 32.3104 42.7959 32.2649C42.8526 32.2497 42.9102 32.2423 42.9676 32.2423C43.0817 32.2423 43.1946 32.2723 43.296 32.3309L45.5794 33.6493C45.7319 33.7372 45.8412 33.8796 45.8867 34.0496C45.9323 34.2194 45.9089 34.3968 45.8209 34.5495Z" fill="black"/>
<path d="M48.0732 21.7056H45.4365C44.3459 21.7056 43.4587 22.5928 43.4587 23.6833C43.4587 24.7739 44.3459 25.6609 45.4365 25.6609H48.0732C49.1638 25.6609 50.051 24.7739 50.051 23.6833C50.051 22.593 49.1635 21.7056 48.0732 21.7056ZM48.0732 24.3425H45.4365C45.0728 24.3425 44.7771 24.0468 44.7771 23.6833C44.7771 23.3199 45.0728 23.0239 45.4365 23.0239H48.0732C48.4367 23.0239 48.7326 23.3197 48.7326 23.6833C48.7326 24.047 48.4367 24.3425 48.0732 24.3425Z" fill="black"/>
<path d="M42.4545 16.3755C42.625 16.4213 42.7979 16.4439 42.9696 16.4439C43.3124 16.4439 43.6506 16.3538 43.9551 16.1781L46.2385 14.8597C47.1829 14.3145 47.5078 13.1026 46.9625 12.158C46.4172 11.2139 45.2054 10.889 44.261 11.4341L41.9776 12.7525C41.9776 12.7525 41.9776 12.7525 41.9774 12.7525C41.0332 13.2979 40.7086 14.5098 41.2539 15.4541C41.518 15.9115 41.9445 16.2388 42.4545 16.3755ZM42.637 13.8943L44.9204 12.5759C45.2353 12.3943 45.6395 12.5027 45.8211 12.8172C46.0027 13.1319 45.8945 13.5361 45.5798 13.7179L43.2964 15.0363C43.1439 15.1242 42.9663 15.1474 42.7963 15.1021C42.626 15.0563 42.4839 14.9475 42.3959 14.795C42.2139 14.4802 42.3219 14.0761 42.637 13.8943Z" fill="black"/>
<path d="M35.2293 9.43005C35.5339 9.60598 35.872 9.69584 36.2148 9.69584C36.3865 9.69584 36.5595 9.67305 36.7299 9.62749C37.2402 9.4908 37.6665 9.16343 37.9306 8.70612L39.2489 6.42272C39.5132 5.96519 39.5833 5.43216 39.4466 4.92211C39.3099 4.41185 38.9825 3.98534 38.525 3.72124C38.0675 3.45694 37.5348 3.38712 37.0242 3.52359C36.5141 3.66028 36.0874 3.98766 35.8235 4.44518L34.5051 6.72879C34.2408 7.18631 34.1708 7.71935 34.3075 8.2294C34.4444 8.73944 34.7718 9.16596 35.2293 9.43005ZM35.647 7.38755L36.9653 5.10415C37.0533 4.95164 37.1957 4.84237 37.3657 4.79681C37.4224 4.78141 37.48 4.77403 37.5374 4.77403C37.6515 4.77403 37.7643 4.80398 37.8658 4.86262C38.1805 5.04445 38.2889 5.44861 38.1073 5.76333L36.789 8.04694C36.6071 8.36165 36.2032 8.47008 35.8885 8.28825C35.5735 8.10642 35.4653 7.70248 35.647 7.38755Z" fill="black"/>
<path d="M42.1407 23.6836C42.1407 15.3352 35.3487 8.54297 27 8.54297C18.6514 8.54297 11.8594 15.3349 11.8594 23.6836C11.8594 29.2577 14.8714 34.3134 19.7486 36.9752V38.9806C18.9819 39.2531 18.4305 39.9838 18.4305 40.8428C18.4305 41.7019 18.9821 42.4326 19.7491 42.7051V44.1391H19.6071C19.243 44.1391 18.9479 44.4342 18.9479 44.7983C18.9479 45.1623 19.243 45.4575 19.6071 45.4575H19.7491V46.7758H19.6073C19.2432 46.7758 18.9481 47.0709 18.9481 47.435C18.9481 47.7991 19.2432 48.0942 19.6073 48.0942H19.7491V48.7531C19.7491 49.8437 20.6363 50.7309 21.7266 50.7309V51.3896C21.7266 52.4802 22.6138 53.3672 23.7044 53.3672H30.2964C31.3869 53.3672 32.2741 52.4802 32.2741 51.3894V50.7309C33.3645 50.7307 34.2514 49.8437 34.2514 48.7531V48.0942H34.3932C34.7573 48.0942 35.0524 47.7991 35.0524 47.435C35.0524 47.0709 34.7573 46.7758 34.3932 46.7758H34.2514V45.4575H34.3934C34.7575 45.4575 35.0526 45.1623 35.0526 44.7983C35.0526 44.4342 34.7575 44.1391 34.3934 44.1391H34.2514V42.7054C35.0184 42.433 35.57 41.7021 35.57 40.843C35.57 39.9838 35.0184 39.2529 34.2517 38.9806V36.9754C39.1279 34.3134 42.1407 29.2577 42.1407 23.6836ZM13.1777 23.6836C13.1777 16.062 19.3785 9.86133 27 9.86133C34.6219 9.86133 40.8224 16.062 40.8224 23.6836C40.8224 28.8959 37.9367 33.612 33.2913 35.9916C33.071 36.1045 32.9325 36.331 32.9325 36.5785V38.8652H28.9776V28.319H30.9551C32.0457 28.319 32.9329 27.4318 32.9329 26.3412C32.9329 25.2507 32.0457 24.3637 30.9551 24.3637C29.8646 24.3637 28.9774 25.2507 28.9774 26.3412C28.9774 26.5726 29.0194 26.7939 29.0928 27.0006H24.9071C24.9805 26.7941 25.0225 26.5729 25.0225 26.3412C25.0225 25.2507 24.1353 24.3637 23.0448 24.3637C21.9542 24.3637 21.0672 25.2507 21.0672 26.3412C21.0672 27.4318 21.9544 28.319 23.0448 28.319H25.0223V38.8652H21.067V36.5783C21.067 36.3308 20.9284 36.1043 20.7084 35.9916C16.0634 33.6118 13.1777 28.8959 13.1777 23.6836ZM26.3409 38.8652V28.319H27.6592V38.8652H26.3409ZM30.2959 26.3412C30.2959 25.9776 30.5917 25.6821 30.9553 25.6821C31.319 25.6821 31.6147 25.9776 31.6147 26.3412C31.6147 26.7047 31.319 27.0006 30.9553 27.0006C30.5917 27.0004 30.2959 26.7047 30.2959 26.3412ZM22.3856 26.3412C22.3856 25.9776 22.6813 25.6821 23.0448 25.6821C23.4082 25.6821 23.7041 25.9776 23.7041 26.3412C23.7041 26.7047 23.4084 27.0006 23.0448 27.0006C22.6813 27.0004 22.3856 26.7047 22.3856 26.3412ZM30.2959 52.0488H23.7039C23.3405 52.0488 23.0445 51.7531 23.0445 51.3896V50.7309H30.9551L30.9553 51.3896C30.9553 51.7531 30.6596 52.0488 30.2959 52.0488ZM32.9327 48.7531C32.9327 49.1168 32.6369 49.4125 32.2735 49.4125H31.6162C31.6156 49.4125 31.6152 49.4123 31.6145 49.4123H22.3856C22.3849 49.4123 22.3845 49.4125 22.3839 49.4125H21.7264C21.3627 49.4125 21.067 49.1168 21.067 48.7531V48.0942H32.9325V48.7531H32.9327ZM32.9327 46.7758H21.0672V45.4575H32.9327V46.7758ZM21.0672 44.1391V42.8205H32.9325V44.1391H21.0672ZM33.5918 41.5022H20.4082C20.0446 41.5022 19.7489 41.2064 19.7489 40.8428C19.7489 40.4791 20.0446 40.1834 20.4082 40.1834H25.6773C25.6789 40.1834 25.6804 40.1838 25.6819 40.1838C25.6834 40.1838 25.6851 40.1834 25.6865 40.1834H28.3138C28.3155 40.1834 28.3169 40.1838 28.3184 40.1838C28.3199 40.1838 28.3216 40.1834 28.323 40.1834H33.5916C33.9551 40.1834 34.2508 40.4791 34.2508 40.8428C34.2508 41.2064 33.9553 41.5022 33.5918 41.5022Z" fill="black"/>
</svg>
