<svg width="57" height="57" viewBox="0 0 57 57" fill="none" xmlns="http://www.w3.org/2000/svg">
<path d="M49.3892 21.7511C49.3892 23.8492 46.2462 25.4247 45.6314 27.3179C44.9944 29.28 46.5888 32.3978 45.4003 34.031C44.1999 35.6805 40.7339 35.1214 39.0844 36.3219C37.4512 37.5105 36.9186 40.9859 34.9566 41.6229C33.0636 42.2377 30.5981 39.7591 28.5 39.7591C26.4019 39.7591 23.9364 42.2377 22.0434 41.6229C20.0814 40.9859 19.5488 37.5103 17.9156 36.3217C16.2662 35.1214 12.8001 35.6802 11.5997 34.0308C10.4112 32.3976 12.0059 29.2798 11.3686 27.3177C10.7539 25.4247 7.61084 23.849 7.61084 21.7511C7.61084 19.653 10.7539 18.0775 11.3686 16.1842C12.0056 14.2222 10.4112 11.1043 11.5997 9.47116C12.8001 7.82172 16.2662 8.38081 17.9156 7.18025C19.5488 5.99171 20.0814 2.51627 22.0434 1.87925C23.9364 1.26449 26.4019 3.7431 28.5 3.7431C30.5981 3.7431 33.0636 1.26449 34.9566 1.87925C36.9186 2.51627 37.4512 5.99193 39.0844 7.18047C40.7339 8.38081 44.1999 7.82194 45.4003 9.47138C46.5888 11.1046 44.9942 14.2224 45.6314 16.1845C46.2462 18.0775 49.3892 19.653 49.3892 21.7511Z" fill="white"/>
<path d="M28.5 37.3293C37.1036 37.3293 44.0782 30.3547 44.0782 21.7511C44.0782 13.1475 37.1036 6.17297 28.5 6.17297C19.8964 6.17297 12.9219 13.1475 12.9219 21.7511C12.9219 30.3547 19.8964 37.3293 28.5 37.3293Z" fill="white"/>
<path d="M28.4999 34.7319C35.669 34.7319 41.4808 28.9201 41.4808 21.751C41.4808 14.5819 35.669 8.77014 28.4999 8.77014C21.3308 8.77014 15.519 14.5819 15.519 21.751C15.519 28.9201 21.3308 34.7319 28.4999 34.7319Z" fill="white"/>
<path d="M27.8354 27.1143C26.3726 26.8934 25.3127 25.9877 25.1927 24.5072C25.1803 24.3531 25.3054 24.2216 25.4599 24.2216H26.6173C26.7495 24.2216 26.8591 24.3189 26.8811 24.4493C26.9686 24.9643 27.2265 25.3669 27.6745 25.5795C27.8532 25.6644 28.0605 25.5368 28.0605 25.3388V22.5432C28.0605 22.4234 27.9808 22.3185 27.8655 22.2858C26.5505 21.9137 25.1812 21.4281 25.1812 19.3737C25.1812 17.7371 26.2581 16.5891 27.8372 16.3435C27.9664 16.3235 28.0608 16.2113 28.0608 16.0806V15.3284C28.0608 15.1808 28.1806 15.061 28.3282 15.061H28.6849C28.8325 15.061 28.9523 15.1808 28.9523 15.3284V16.0643C28.9523 16.1948 29.0467 16.3079 29.1756 16.3275C30.5378 16.533 31.4794 17.3816 31.6898 18.8404C31.713 19.0007 31.5861 19.1443 31.4242 19.1443H30.2778C30.1497 19.1443 30.0435 19.0526 30.0157 18.9277C29.9302 18.5432 29.7102 18.1947 29.3709 17.972C29.1912 17.8543 28.9523 17.9785 28.9523 18.1934V20.8815C28.9523 21.0024 29.0333 21.1079 29.15 21.1396C30.4632 21.4969 31.8183 21.9696 31.8183 24.0225C31.8183 25.4451 30.8849 26.8253 29.1758 27.0981C29.0469 27.1185 28.9523 27.2303 28.9523 27.361V28.1136C28.9523 28.2612 28.8325 28.381 28.6849 28.381H28.3282C28.1806 28.381 28.0608 28.2612 28.0608 28.1136V27.3773C28.061 27.2463 27.9652 27.1339 27.8354 27.1143ZM28.061 20.4275V18.0765C28.061 17.8957 27.8833 17.7614 27.7125 17.8213C27.1474 18.0197 26.772 18.5006 26.772 19.2822C26.772 20.0056 27.137 20.4034 27.6733 20.6666C27.8517 20.7544 28.061 20.6263 28.061 20.4275ZM28.9523 22.9987V25.3466C28.9523 25.5408 29.1522 25.6684 29.3304 25.5909C29.9164 25.336 30.2415 24.7786 30.2415 24.1147C30.2415 23.4029 29.8756 23.0174 29.3384 22.7585C29.1598 22.6725 28.9523 22.8006 28.9523 22.9987Z" fill="black"/>
<path d="M22.6871 42.166C22.4226 42.166 22.1619 42.1295 21.9058 42.0464C20.6356 41.6339 19.934 40.2917 19.2556 38.9936C18.7802 38.0845 18.289 37.1442 17.6536 36.6818C17.0061 36.2104 15.9502 36.0298 14.9289 35.8553C13.4959 35.6101 12.0141 35.357 11.2397 34.2927C10.4742 33.2408 10.6877 31.762 10.8939 30.3316C11.0429 29.2987 11.197 28.2309 10.9451 27.4551C10.7087 26.7268 10.0091 26.0134 9.26854 25.2582C8.23474 24.2039 7.16577 23.1135 7.16577 21.7509C7.16577 20.3882 8.23497 19.2979 9.26876 18.2436C10.0093 17.4881 10.7089 16.7747 10.9451 16.0467C11.1972 15.2711 11.0429 14.2031 10.8942 13.1699C10.6873 11.74 10.474 10.2609 11.2395 9.2091C12.0141 8.14503 13.4959 7.89165 14.9287 7.6465C15.95 7.47194 17.0058 7.29136 17.6533 6.82C18.2888 6.35754 18.7802 5.41749 19.2551 4.50838C19.9338 3.2103 20.6351 1.8679 21.9056 1.45554C23.1182 1.06122 24.4455 1.71449 25.7282 2.34639C26.6778 2.81419 27.6597 3.29758 28.4994 3.29758C29.339 3.29758 30.3211 2.81397 31.2705 2.34639C32.5533 1.71472 33.8801 1.06144 35.0933 1.45554C36.3636 1.86813 37.0652 3.2103 37.7436 4.50838C38.219 5.41749 38.7102 6.35777 39.3456 6.82022C39.9931 7.29159 41.0489 7.47216 42.0703 7.64672C43.5033 7.89187 44.9851 8.14503 45.7595 9.20933C46.5249 10.2612 46.3114 11.74 46.1052 13.1702C45.9563 14.2031 45.8022 15.2711 46.054 16.0469C46.2905 16.775 46.9898 17.4884 47.7304 18.2436C48.7644 19.2979 49.8334 20.3882 49.8334 21.7509C49.8334 23.1135 48.7642 24.2039 47.7306 25.2582C46.9901 26.0136 46.2903 26.727 46.054 27.4551C45.802 28.2309 45.9563 29.2989 46.105 30.3318C46.3116 31.7622 46.5249 33.2411 45.7592 34.2929C44.9846 35.357 43.5028 35.6103 42.07 35.8553C41.0487 36.0298 39.9929 36.2104 39.3454 36.6818C38.7099 37.1442 38.2185 38.0843 37.7436 38.9934C37.0649 40.2915 36.3636 41.6339 35.0931 42.0464C33.8798 42.4403 32.553 41.7873 31.2705 41.1556C30.3209 40.6878 29.339 40.2044 28.4994 40.2044C27.6597 40.2044 26.6776 40.688 25.7282 41.1556C24.7164 41.6539 23.6768 42.166 22.6871 42.166ZM28.4998 39.3136C29.547 39.3136 30.6235 39.8437 31.6646 40.3565C32.8394 40.9352 33.95 41.4816 34.8186 41.1992C35.743 40.8991 36.3591 39.7204 36.955 38.5808C37.4778 37.5809 38.0179 36.5466 38.8221 35.9615C39.6382 35.3677 40.7987 35.169 41.9206 34.9773C43.2361 34.7525 44.4787 34.54 45.04 33.7688C45.5925 33.0097 45.4139 31.7706 45.2244 30.459C45.061 29.3252 44.8918 28.1529 45.2077 27.1799C45.509 26.2528 46.3156 25.4301 47.0956 24.6343C48.0043 23.7078 48.9439 22.7495 48.9439 21.7507C48.9439 20.7518 48.0043 19.7935 47.0956 18.8668C46.3154 18.0715 45.509 17.2488 45.2077 16.3214C44.892 15.3489 45.0612 14.1763 45.2246 13.0426C45.4139 11.7309 45.5925 10.4918 45.0403 9.73301C44.479 8.96173 43.2363 8.74932 41.9209 8.52421C40.7987 8.33251 39.6384 8.1339 38.8224 7.54007C38.0184 6.95493 37.4778 5.92092 36.955 4.92052C36.3594 3.78097 35.7435 2.60245 34.819 2.30231C33.9486 2.01998 32.8394 2.56682 31.6646 3.14506C30.6235 3.65784 29.547 4.18798 28.4998 4.18798C27.4527 4.18798 26.3761 3.65784 25.335 3.14506C24.1602 2.56615 23.0494 2.01998 22.181 2.30231C21.2566 2.60245 20.6405 3.78097 20.0447 4.92074C19.5219 5.92047 18.9817 6.95471 18.1775 7.53985C17.3614 8.13367 16.2012 8.33228 15.079 8.52399C13.7635 8.7491 12.5209 8.96151 11.9596 9.73279C11.4072 10.4918 11.5857 11.7309 11.7752 13.0426C11.9386 14.1763 12.1079 15.3484 11.7919 16.3214C11.4906 17.2488 10.6842 18.0713 9.904 18.8668C8.99534 19.7935 8.05573 20.7518 8.05573 21.7507C8.05573 22.7495 8.99534 23.7078 9.904 24.6343C10.684 25.4298 11.4906 26.2528 11.7919 27.1801C12.1076 28.1527 11.9384 29.3252 11.775 30.4587C11.5857 31.7706 11.4072 33.0095 11.9593 33.7685C12.5207 34.5398 13.7633 34.7522 15.0788 34.9773C16.2009 35.169 17.3612 35.3677 18.1772 35.9615C18.9812 36.5466 19.5219 37.5806 20.0447 38.581C20.6403 39.7206 21.2561 40.8991 22.1806 41.1992C23.0516 41.482 24.1605 40.935 25.335 40.3565C26.3761 39.8437 27.4527 39.3136 28.4998 39.3136Z" fill="black"/>
<path d="M28.4999 35.1771C21.0968 35.1771 15.0737 29.154 15.0737 21.7509C15.0737 14.3478 21.0968 8.32471 28.4999 8.32471C35.903 8.32471 41.9261 14.3478 41.9261 21.7509C41.9261 29.154 35.903 35.1771 28.4999 35.1771ZM28.4999 9.21555C21.5878 9.21555 15.9644 14.839 15.9644 21.7511C15.9644 28.6632 21.5878 34.2866 28.4999 34.2866C35.412 34.2866 41.0355 28.6632 41.0355 21.7511C41.0355 14.839 35.412 9.21555 28.4999 9.21555Z" fill="black"/>
<path d="M34.9562 41.6229C33.0632 42.2377 30.5977 39.7588 28.4997 39.7588C26.4016 39.7588 23.9361 42.2374 22.0431 41.6227C20.4989 41.1213 19.8399 38.8624 18.8333 37.3432V42.001V54.0676C18.8333 55.0331 19.9517 55.5679 20.7031 54.9618L27.418 49.5468C28.0492 49.0376 28.9501 49.0376 29.5815 49.5468L36.2964 54.9618C37.0479 55.5679 38.1663 55.0331 38.1663 54.0676V42.001V37.343C37.1594 38.8622 36.5004 41.1215 34.9562 41.6229Z" fill="black"/>
<path d="M37.014 55.6638C36.6584 55.6641 36.3075 55.5434 36.0165 55.3085L29.3019 49.8937C28.837 49.5188 28.1625 49.5188 27.6976 49.8937L20.9828 55.3085C20.5001 55.6977 19.853 55.7729 19.2942 55.5058C18.7351 55.2386 18.3879 54.6875 18.3879 54.0678V37.3432C18.3879 37.1466 18.5166 36.9736 18.7048 36.9169C18.8934 36.8603 19.096 36.9336 19.2044 37.0974C19.5086 37.5563 19.7809 38.0771 20.0443 38.5812C20.6399 39.7208 21.256 40.8993 22.1804 41.1994C23.0508 41.4818 24.1603 40.9351 25.3348 40.3567C26.376 39.8439 27.4525 39.3137 28.4997 39.3137C29.5468 39.3137 30.6233 39.8439 31.6645 40.3567C32.8388 40.9351 33.948 41.4818 34.8189 41.1994H34.8186C35.7429 40.8993 36.3592 39.7208 36.955 38.5812C37.2184 38.0771 37.4907 37.5561 37.7949 37.0974C37.9033 36.9336 38.1059 36.8603 38.2945 36.9169C38.4827 36.9736 38.6114 37.1466 38.6114 37.3432V54.0678C38.6114 54.6875 38.264 55.2386 37.7051 55.5058C37.4834 55.612 37.2478 55.6638 37.014 55.6638ZM19.2786 39.0385V54.0678C19.2786 54.3453 19.4282 54.5826 19.6785 54.7024C19.9294 54.8226 20.2077 54.7899 20.4237 54.6154L27.1383 49.2006C27.9274 48.5644 29.0725 48.564 29.8612 49.2006L36.5758 54.6154C36.792 54.7899 37.0708 54.8222 37.3211 54.7024C37.5713 54.5826 37.721 54.3453 37.721 54.0678V39.0385C37.0494 40.3226 36.3496 41.6387 35.0941 42.0464H35.0938C33.8815 42.4398 32.5538 41.7875 31.2711 41.1556C30.3214 40.6878 29.3395 40.2044 28.4999 40.2044C27.6602 40.2044 26.6781 40.688 25.7285 41.1556C24.4457 41.7872 23.1205 42.4403 21.9057 42.0464C20.6499 41.6387 19.9499 40.3226 19.2786 39.0385ZM34.9562 41.6229H34.9585H34.9562Z" fill="black"/>
<path d="M21.3691 21.9514L19.5175 19.2791C19.3287 19.0065 18.9206 19.0226 18.7538 19.3091L17.1533 22.0574C16.9748 22.364 17.2021 22.7474 17.5566 22.738L18.1268 22.7231C18.3381 24.8582 19.1987 26.8478 20.6185 28.4812C20.6185 28.4814 20.619 28.4817 20.619 28.4817C22.0435 30.1204 23.9136 31.2649 26.0269 31.7919C27.0141 32.0379 28.0352 32.1401 29.0619 32.0958C34.4163 31.8645 38.733 27.7048 39.1024 22.4201C39.1139 22.2557 39.1215 22.0901 39.1251 21.9238C39.1814 19.3365 38.2832 16.8425 36.5955 14.901C35.1794 13.272 33.3053 12.1302 31.1762 11.5994C30.2792 11.3759 29.3518 11.2708 28.4198 11.287C25.9175 11.3307 23.5064 12.26 21.6303 13.9039C21.403 14.1032 21.2605 14.3895 21.2391 14.6963L21.2371 14.7447C21.2313 14.8825 21.2498 15.0221 21.2999 15.1508C21.3691 15.3285 21.464 15.4743 21.5911 15.5954C21.7358 15.7335 21.9149 15.8321 22.1081 15.8804C22.4797 15.9731 22.8743 15.8771 23.1633 15.6239C24.6268 14.3425 26.5078 13.6182 28.4601 13.5842C29.1881 13.5715 29.9124 13.6534 30.6123 13.828C32.2648 14.2399 33.7239 15.1316 34.832 16.4063C36.1056 17.8714 36.8092 19.7433 36.8134 21.6771C36.8139 21.8737 36.8072 22.0718 36.7936 22.2662C36.5064 26.3731 33.1459 29.6119 28.9768 29.7996C28.1688 29.8359 27.3659 29.7561 26.5909 29.5629C24.9481 29.1534 23.4904 28.2588 22.3751 26.9758C21.305 25.7448 20.639 24.2541 20.4475 22.6617H20.9964C21.3622 22.6623 21.5773 22.2517 21.3691 21.9514Z" fill="black"/>
</svg>
