<svg width="55" height="55" viewBox="0 0 55 55" fill="none" xmlns="http://www.w3.org/2000/svg">
<path d="M43.1342 49.6289H8.3993C7.51737 49.6289 6.80237 48.9139 6.80237 48.032V3.31568C6.80237 2.43375 7.51737 1.71875 8.3993 1.71875H43.1342C44.0161 1.71875 44.7311 2.43375 44.7311 3.31568V48.0318C44.7313 48.9139 44.0163 49.6289 43.1342 49.6289Z" fill="white"/>
<path d="M38.7425 12.6743H12.7911C12.2398 12.6743 11.793 12.2274 11.793 11.6762V7.68371C11.793 7.13242 12.2398 6.68555 12.7911 6.68555H38.7425C39.2938 6.68555 39.7407 7.13242 39.7407 7.68371V11.6762C39.7405 12.2274 39.2936 12.6743 38.7425 12.6743Z" fill="black"/>
<path d="M25.6867 23.9471H13.3899C12.508 23.9471 11.793 23.2321 11.793 22.3502V17.6C11.793 16.7181 12.508 16.0031 13.3899 16.0031H25.6867C26.5686 16.0031 27.2836 16.7181 27.2836 17.6V22.3502C27.2838 23.2321 26.5688 23.9471 25.6867 23.9471Z" fill="black"/>
<path d="M43.1344 50.0586H8.3993C7.28168 50.0586 6.37268 49.1496 6.37268 48.0318V3.3159C6.37268 2.19828 7.28168 1.28906 8.3993 1.28906H43.1342C44.2518 1.28906 45.1608 2.19807 45.1608 3.3159V48.032C45.161 49.1496 44.2518 50.0586 43.1344 50.0586ZM8.3993 2.14844C7.75563 2.14844 7.23206 2.67223 7.23206 3.3159V48.032C7.23206 48.6756 7.75584 49.1994 8.3993 49.1994H43.1342C43.7778 49.1994 44.3014 48.6756 44.3014 48.032V3.3159C44.3014 2.67223 43.7776 2.14844 43.1342 2.14844H8.3993Z" fill="black"/>
<path d="M19.1019 40.9211H12.9754C12.3225 40.9211 11.7931 40.3917 11.7931 39.7388V34.1593C11.7931 33.5064 12.3225 32.9771 12.9754 32.9771H19.1021C19.755 32.9771 20.2844 33.5064 20.2844 34.1593V39.7388C20.2844 40.392 19.755 40.9211 19.1019 40.9211Z" fill="black"/>
<path d="M38.7425 19.1195H29.9456C29.3943 19.1195 28.9474 18.6726 28.9474 18.1213C28.9474 17.57 29.3943 17.1232 29.9456 17.1232H38.7425C39.2938 17.1232 39.7407 17.57 39.7407 18.1213C39.7405 18.6726 39.2936 19.1195 38.7425 19.1195Z" fill="black"/>
<path d="M38.7425 22.8265H29.9456C29.3943 22.8265 28.9474 22.3797 28.9474 21.8284C28.9474 21.2771 29.3943 20.8302 29.9456 20.8302H38.7425C39.2938 20.8302 39.7407 21.2771 39.7407 21.8284C39.7405 22.3797 39.2936 22.8265 38.7425 22.8265Z" fill="black"/>
<path d="M38.7425 27.6702H12.7911C12.2398 27.6702 11.793 27.2233 11.793 26.672C11.793 26.1207 12.2398 25.6738 12.7911 25.6738H38.7425C39.2938 25.6738 39.7407 26.1207 39.7407 26.672C39.7405 27.2233 39.2936 27.6702 38.7425 27.6702Z" fill="black"/>
<path d="M38.7425 31.1136H12.7911C12.2398 31.1136 11.793 30.6668 11.793 30.1155C11.793 29.5642 12.2398 29.1173 12.7911 29.1173H38.7425C39.2938 29.1173 39.7407 29.5642 39.7407 30.1155C39.7405 30.6668 39.2936 31.1136 38.7425 31.1136Z" fill="black"/>
<path d="M38.7425 44.7806H12.7911C12.2398 44.7806 11.793 44.3338 11.793 43.7825C11.793 43.2312 12.2398 42.7843 12.7911 42.7843H38.7425C39.2938 42.7843 39.7407 43.2312 39.7407 43.7825C39.7405 44.3338 39.2936 44.7806 38.7425 44.7806Z" fill="black"/>
<path d="M28.8301 40.9211H22.7034C22.0505 40.9211 21.5211 40.3917 21.5211 39.7388V34.1593C21.5211 33.5064 22.0505 32.9771 22.7034 32.9771H28.8301C29.483 32.9771 30.0124 33.5064 30.0124 34.1593V39.7388C30.0126 40.392 29.4832 40.9211 28.8301 40.9211Z" fill="black"/>
<path d="M38.5581 40.9211H32.4314C31.7785 40.9211 31.2491 40.3917 31.2491 39.7388V34.1593C31.2491 33.5064 31.7785 32.9771 32.4314 32.9771H38.5581C39.211 32.9771 39.7404 33.5064 39.7404 34.1593V39.7388C39.7404 40.392 39.211 40.9211 38.5581 40.9211Z" fill="black"/>
<path d="M9.80762 36.86L9.80762 15.613L3.88974 15.613L3.88974 36.86L9.80762 36.86Z" fill="white"/>
<path d="M9.80743 36.8599H3.88977L6.43932 40.8134C6.62194 41.0964 7.07526 41.0964 7.25788 40.8134L9.80743 36.8599Z" fill="white"/>
<path d="M3.88977 15.6128V13.3636C3.88977 12.7861 4.35792 12.318 4.93542 12.318H8.762C9.3395 12.318 9.80764 12.7861 9.80764 13.3636V15.6128H3.88977Z" fill="white"/>
<path d="M7.25781 40.8135L8.46416 38.9429H5.23291L6.43926 40.8135C6.62187 41.0967 7.0752 41.0967 7.25781 40.8135Z" fill="black"/>
<path d="M9.80764 37.2896H3.88977C3.65258 37.2896 3.46008 37.0971 3.46008 36.8599V15.6129C3.46008 15.3757 3.65258 15.1832 3.88977 15.1832H9.80764C10.0448 15.1832 10.2373 15.3757 10.2373 15.6129V36.8601C10.2373 37.0973 10.0448 37.2896 9.80764 37.2896ZM4.31946 36.4302H9.37795V16.0426H4.31946V36.4302Z" fill="black"/>
<path d="M6.84846 41.4553C6.53114 41.4553 6.24325 41.3023 6.07803 41.046L3.52848 37.0929C3.44319 36.9607 3.43696 36.7925 3.51216 36.6544C3.58757 36.5162 3.73216 36.4303 3.88942 36.4303H9.80729C9.96456 36.4303 10.1094 36.5162 10.1846 36.6544C10.2598 36.7925 10.2535 36.9607 10.1682 37.0929L7.61868 41.0462C7.45368 41.3023 7.16579 41.4553 6.84846 41.4553ZM4.6779 37.2895L6.80012 40.5802C6.80507 40.5877 6.82483 40.5957 6.84825 40.5957C6.87188 40.5957 6.89165 40.5877 6.89659 40.5802L9.01882 37.2895H4.6779Z" fill="black"/>
<path d="M9.80764 16.0425H3.88977C3.65258 16.0425 3.46008 15.85 3.46008 15.6128V13.3636C3.46008 12.5502 4.12202 11.8883 4.93542 11.8883H8.762C9.5754 11.8883 10.2373 12.5502 10.2373 13.3636V15.6128C10.2373 15.85 10.0448 16.0425 9.80764 16.0425ZM4.31946 15.1831H9.37795V13.3636C9.37795 13.024 9.10167 12.7477 8.762 12.7477H4.93542C4.59575 12.7477 4.31946 13.024 4.31946 13.3636V15.1831Z" fill="black"/>
<path d="M41.5849 53.2813C47.2436 53.2813 51.831 48.6939 51.831 43.0352C51.831 37.3764 47.2436 32.7891 41.5849 32.7891C35.9261 32.7891 31.3387 37.3764 31.3387 43.0352C31.3387 48.6939 35.9261 53.2813 41.5849 53.2813Z" fill="white"/>
<path d="M41.5849 50.549C45.7347 50.549 49.0988 47.1849 49.0988 43.0351C49.0988 38.8852 45.7347 35.5211 41.5849 35.5211C37.435 35.5211 34.0709 38.8852 34.0709 43.0351C34.0709 47.1849 37.435 50.549 41.5849 50.549Z" fill="white"/>
<path d="M41.5849 53.711C35.6981 53.711 30.9091 48.9219 30.9091 43.0352C30.9091 37.1485 35.6981 32.3594 41.5849 32.3594C47.4716 32.3594 52.2607 37.1485 52.2607 43.0352C52.2607 48.9219 47.4714 53.711 41.5849 53.711ZM41.5849 33.2185C36.1721 33.2185 31.7684 37.6222 31.7684 43.035C31.7684 48.4477 36.1721 52.8516 41.5849 52.8516C46.9976 52.8516 51.4013 48.448 51.4013 43.0352C51.4013 37.6224 46.9976 33.2185 41.5849 33.2185Z" fill="black"/>
<path d="M36.2388 41.3402C36.1169 41.3402 36.0301 41.369 35.9745 41.4285C35.9522 41.4521 35.9066 41.5059 35.7693 41.6973C35.6754 41.8277 35.5672 41.9467 35.4471 42.0509C35.3278 42.1545 35.1645 42.2557 34.9615 42.3511C34.809 42.4226 34.7033 42.4808 34.6375 42.5298C34.5754 42.5769 34.5011 42.6675 34.5011 42.8327C34.5011 42.9436 34.5434 43.0459 34.624 43.1292C34.7058 43.2132 34.8064 43.2575 34.9149 43.2575C35.029 43.2575 35.221 43.2091 35.6973 42.866V45.0332C35.6973 45.2076 35.7416 45.3451 35.829 45.4418C35.9184 45.5411 36.0417 45.5935 36.1855 45.5935C36.3698 45.5935 36.6794 45.5073 36.6794 44.9292V41.8793C36.6794 41.7224 36.6416 41.5944 36.567 41.4988C36.4858 41.395 36.3724 41.3402 36.2388 41.3402Z" fill="black"/>
<path d="M40.1147 41.7235C39.9896 41.5965 39.8424 41.499 39.6774 41.4328C39.5133 41.3675 39.3296 41.3346 39.1315 41.3346C38.8299 41.3346 38.565 41.4096 38.3446 41.5574C38.1243 41.7054 37.9546 41.9218 37.839 42.2026C37.775 42.3676 37.7277 42.5639 37.6985 42.7863C37.6695 43.005 37.6549 43.2544 37.6549 43.5277C37.6549 43.7417 37.6684 43.943 37.6951 44.1254C37.7219 44.313 37.7649 44.4866 37.8242 44.6436C37.9409 44.9352 38.1185 45.1676 38.3523 45.335C38.5878 45.5028 38.8572 45.5879 39.1532 45.5879C39.41 45.5879 39.6472 45.5245 39.8581 45.3994C40.068 45.2755 40.2412 45.0967 40.3738 44.8668C40.4767 44.6836 40.5478 44.478 40.5854 44.255C40.6219 44.0388 40.6404 43.7789 40.6404 43.4822C40.6404 42.9298 40.5684 42.493 40.4262 42.1843C40.3417 42.003 40.2371 41.8479 40.1147 41.7235ZM38.7016 44.2479C38.6642 44.0446 38.6451 43.7765 38.6451 43.4506C38.6451 42.9764 38.6883 42.6245 38.7738 42.4049C38.8456 42.2195 38.9627 42.133 39.1423 42.133C39.2677 42.133 39.3616 42.1706 39.4289 42.2477C39.5051 42.3349 39.5616 42.4722 39.5962 42.6552C39.6336 42.8533 39.6527 43.1137 39.6527 43.4293C39.6527 43.7628 39.6345 44.0345 39.5988 44.238C39.5655 44.4266 39.5092 44.5708 39.4312 44.6664C39.3631 44.7504 39.2731 44.7895 39.1479 44.7895C39.0284 44.7895 38.9377 44.7508 38.8707 44.6711C38.7929 44.58 38.7362 44.4376 38.7016 44.2479Z" fill="black"/>
<path d="M43.3565 41.7235C43.2315 41.5965 43.0843 41.499 42.9193 41.4328C42.7552 41.3675 42.5715 41.3346 42.3734 41.3346C42.072 41.3346 41.8071 41.4096 41.5864 41.5574C41.366 41.7056 41.1965 41.9218 41.0811 42.2023C41.0173 42.3663 40.97 42.5626 40.9404 42.7865C40.9114 43.0056 40.897 43.2551 40.897 43.5277C40.897 43.7411 40.9105 43.9424 40.9369 44.1254C40.9636 44.3121 41.0068 44.4855 41.0661 44.6436C41.1827 44.9352 41.3604 45.1676 41.5941 45.335C41.8296 45.5028 42.0992 45.5879 42.3953 45.5879C42.652 45.5879 42.8894 45.5245 43.1002 45.3994C43.3099 45.2757 43.4828 45.0969 43.6156 44.8668C43.7183 44.6838 43.7896 44.4782 43.8274 44.255C43.8637 44.0384 43.8822 43.7784 43.8822 43.4822C43.8822 42.9298 43.8103 42.493 43.668 42.1843C43.5836 42.003 43.479 41.8479 43.3565 41.7235ZM41.9435 44.2479C41.9061 44.0446 41.887 43.7765 41.887 43.4506C41.887 42.9764 41.9302 42.6245 42.0157 42.4049C42.0874 42.2195 42.2045 42.133 42.3841 42.133C42.5096 42.133 42.6035 42.1706 42.6707 42.2477C42.747 42.3349 42.8035 42.4722 42.8381 42.6552C42.8755 42.8523 42.8946 43.1126 42.8946 43.4293C42.8946 43.7628 42.8763 44.0345 42.8407 44.238C42.8074 44.4266 42.7511 44.5708 42.6731 44.6664C42.605 44.7504 42.515 44.7895 42.3897 44.7895C42.2703 44.7895 42.1796 44.7508 42.1126 44.6711C42.035 44.5802 41.9783 44.4378 41.9435 44.2479Z" fill="black"/>
<path d="M47.8164 41.6075C47.8164 41.5205 47.7853 41.4451 47.7264 41.3896C47.6697 41.3361 47.5947 41.308 47.509 41.308C47.3926 41.308 47.3236 41.3583 47.2862 41.4004C47.2514 41.4397 47.213 41.4945 47.1704 41.5662L44.9401 45.1694C44.8898 45.2452 44.8654 45.3129 44.8654 45.3767C44.8654 45.4661 44.9053 45.5456 44.9775 45.6003C45.0411 45.6489 45.1086 45.6732 45.1782 45.6732C45.2607 45.6732 45.3801 45.6367 45.4792 45.4659L47.6981 41.8889C47.7823 41.7546 47.8164 41.673 47.8164 41.6075Z" fill="black"/>
<path d="M45.6841 43.3374C45.8547 43.1488 45.9411 42.8652 45.9411 42.4944C45.9411 42.3124 45.9215 42.1508 45.8829 42.0146C45.8425 41.8713 45.7795 41.7476 45.6957 41.6464C45.6094 41.5424 45.5028 41.4637 45.3786 41.4135C45.259 41.3647 45.12 41.3402 44.9651 41.3402C44.7489 41.3402 44.5663 41.3875 44.4222 41.4805C44.2748 41.5759 44.1676 41.7162 44.1031 41.8969C44.0436 42.0647 44.0133 42.2739 44.0133 42.5184C44.0133 42.7522 44.0535 42.9545 44.1323 43.12C44.2148 43.2931 44.333 43.4231 44.4834 43.5065C44.629 43.5868 44.7947 43.6274 44.9758 43.6274C45.2721 43.6274 45.5103 43.5299 45.6841 43.3374ZM45.1228 42.0152C45.1513 42.0758 45.1853 42.2037 45.1853 42.4677C45.1853 42.7457 45.1524 42.8824 45.1249 42.9477C45.1026 43.0012 45.0684 43.0368 44.9758 43.0368C44.9075 43.0368 44.8785 43.0153 44.8628 42.9992C44.8319 42.9679 44.8087 42.9133 44.7953 42.8411C44.7779 42.7485 44.7691 42.6265 44.7691 42.4785C44.7691 42.3358 44.7779 42.217 44.7953 42.1253C44.8087 42.0544 44.8321 42.0002 44.8632 41.9688C44.8798 41.9525 44.9094 41.9304 44.9758 41.9304C45.0699 41.9306 45.1021 41.9712 45.1228 42.0152Z" fill="black"/>
<path d="M48.6106 43.9395C48.5702 43.7949 48.5062 43.6712 48.4203 43.5717C48.3337 43.4716 48.2278 43.3953 48.1051 43.3446C47.9856 43.2959 47.8469 43.2714 47.6928 43.2714C47.3643 43.2714 47.1175 43.3766 46.96 43.5848C46.8111 43.7818 46.7355 44.071 46.7355 44.4444C46.7355 44.6799 46.7759 44.8827 46.8564 45.0473C46.94 45.2181 47.0582 45.3472 47.2079 45.4308C47.3536 45.5122 47.5203 45.5534 47.7036 45.5534C48 45.5534 48.2383 45.4559 48.4119 45.2632C48.5825 45.0745 48.6689 44.7912 48.6689 44.4203C48.6686 44.2386 48.6491 44.0768 48.6106 43.9395ZM47.8505 43.9464C47.8791 44.007 47.913 44.134 47.913 44.3939C47.913 44.6693 47.8795 44.806 47.8514 44.8722C47.8282 44.9267 47.794 44.9633 47.7036 44.9633C47.6262 44.9633 47.5826 44.937 47.5532 44.8728C47.524 44.8092 47.4889 44.6767 47.4889 44.4044C47.4889 44.259 47.4984 44.1413 47.5171 44.0538C47.5317 43.9831 47.5555 43.9309 47.5873 43.8989C47.5964 43.8897 47.6241 43.862 47.7036 43.862C47.7979 43.862 47.8299 43.9028 47.8505 43.9464Z" fill="black"/>
</svg>
