<svg width="57" height="57" viewBox="0 0 57 57" fill="none" xmlns="http://www.w3.org/2000/svg">
<path d="M10.6425 5.82507C10.4257 8.39987 7.74243 8.80622 7.74243 8.80622C10.0463 8.91465 10.6205 11.9365 10.6205 11.9365C10.6697 9.7819 13.5865 8.77438 13.5865 8.77438C11.4013 8.64368 10.6425 5.82507 10.6425 5.82507Z" fill="black"/>
<path d="M13.6062 8.44115C11.6905 8.3267 10.9717 5.76393 10.9648 5.73788C10.9223 5.58135 10.7727 5.47759 10.6124 5.49251C10.451 5.50721 10.3234 5.63546 10.3098 5.79688C10.1181 8.07154 7.79066 8.46097 7.69247 8.47611C7.52258 8.50171 7.40012 8.652 7.40903 8.82367C7.41793 8.99512 7.55531 9.13183 7.72676 9.14007C9.7369 9.2347 10.2871 11.9718 10.2924 11.9994C10.3229 12.1577 10.4614 12.2704 10.6202 12.2704C10.6295 12.2704 10.6389 12.2702 10.6482 12.2693C10.8183 12.255 10.9504 12.115 10.9544 11.9442C10.9976 10.0498 13.6688 9.09932 13.6959 9.08997C13.8462 9.03765 13.9391 8.88624 13.9173 8.7286C13.8952 8.57118 13.7652 8.45072 13.6062 8.44115ZM10.5859 10.7445C10.2837 10.0476 9.76005 9.20664 8.89659 8.76823C9.5492 8.4554 10.3236 7.89698 10.7228 6.9262C11.0682 7.60997 11.658 8.45807 12.5784 8.8682C11.9087 9.23358 11.037 9.84923 10.5859 10.7445Z" fill="black"/>
<path d="M5.81112 9.60596C5.65771 11.4271 3.76001 11.7147 3.76001 11.7147C5.38941 11.7913 5.79553 13.9288 5.79553 13.9288C5.83027 12.4047 7.8934 11.692 7.8934 11.692C6.34794 11.5996 5.81112 9.60596 5.81112 9.60596Z" fill="black"/>
<path d="M7.91325 11.3587C6.62941 11.2819 6.13823 9.53628 6.13334 9.51869C6.09103 9.36238 5.94341 9.25885 5.78109 9.27332C5.61967 9.28779 5.49186 9.41626 5.47828 9.57791C5.34936 11.1078 3.77585 11.3741 3.70994 11.3845C3.54006 11.4102 3.41737 11.5604 3.4265 11.7319C3.43541 11.9033 3.57279 12.04 3.74446 12.0483C5.08819 12.1115 5.46403 13.9729 5.46759 13.991C5.49765 14.1497 5.63659 14.2626 5.79534 14.2626C5.80469 14.2626 5.81382 14.2624 5.82318 14.2615C5.99351 14.2475 6.12554 14.107 6.12955 13.9362C6.1585 12.6648 7.98472 12.0138 8.00276 12.0075C8.15327 11.9554 8.24634 11.8043 8.22452 11.6464C8.2027 11.489 8.07245 11.3683 7.91325 11.3587ZM5.77931 12.8717C5.57358 12.452 5.2583 11.9928 4.78916 11.6963C5.20219 11.4645 5.61232 11.1107 5.8735 10.6015C6.10884 11.0187 6.46443 11.4821 6.97364 11.7646C6.56195 12.0098 6.08569 12.3747 5.77931 12.8717Z" fill="black"/>
<path d="M5.81112 3.67053C5.65771 5.49164 3.76001 5.77931 3.76001 5.77931C5.38941 5.8559 5.79553 7.9934 5.79553 7.9934C5.83027 6.46932 7.8934 5.75682 7.8934 5.75682C6.34794 5.6642 5.81112 3.67053 5.81112 3.67053Z" fill="black"/>
<path d="M7.91325 5.42305C6.62941 5.34623 6.13823 3.60061 6.13334 3.58302C6.09103 3.42671 5.94341 3.32318 5.78109 3.33765C5.61967 3.35235 5.49186 3.4806 5.47828 3.64224C5.34936 5.17212 3.77585 5.43841 3.70994 5.44888C3.54006 5.47448 3.41737 5.62478 3.4265 5.79644C3.43541 5.96789 3.57279 6.1046 3.74446 6.11284C5.08819 6.17607 5.46403 8.03748 5.46759 8.05551C5.49765 8.21427 5.63659 8.32715 5.79534 8.32715C5.80469 8.32715 5.81382 8.32671 5.82317 8.32604C5.99351 8.31201 6.12554 8.17152 6.12955 8.00074C6.1585 6.7296 7.98472 6.07833 8.00276 6.07209C8.1535 6.01999 8.24634 5.86881 8.22452 5.71094C8.2027 5.5533 8.07245 5.43262 7.91325 5.42305ZM5.77931 6.93622C5.57358 6.51629 5.2583 6.0574 4.78916 5.7606C5.20219 5.52881 5.61232 5.17501 5.8735 4.6658C6.10884 5.08305 6.46443 5.5464 6.97364 5.82895C6.56195 6.0741 6.08569 6.43903 5.77931 6.93622Z" fill="black"/>
<path d="M42.8829 42.7829C46.3225 39.3295 48.4117 34.8101 48.4117 29.8589C48.4117 19.0173 38.416 10.2281 26.0857 10.2281C18.5738 10.2281 11.9284 13.4903 7.88158 18.4914L5.96785 21.3367C4.55309 23.9142 3.75977 26.8051 3.75977 29.8589C3.75977 40.7007 13.7555 49.4896 26.0857 49.4896C28.1288 49.4896 30.1056 49.2435 31.9855 48.7915L45.0674 53.0979C45.9384 53.3847 46.7485 52.5248 46.4102 51.6723L42.8829 42.7829Z" fill="white"/>
<path d="M7.50573 18.1873L7.50574 18.1873C11.7862 12.8969 18.7331 9.74441 26.0861 9.74441C38.6451 9.74441 48.8959 18.7502 48.8959 29.8589C48.8959 34.6443 46.9618 39.2623 43.4488 42.8971L46.8609 51.4938C47.0872 52.0641 46.9661 52.6975 46.5454 53.144C46.2433 53.4649 45.8351 53.6376 45.412 53.6376C45.247 53.6376 45.0802 53.6112 44.917 53.5575L44.9169 53.5575L31.9648 49.2939C30.0434 49.7448 28.0665 49.9734 26.0863 49.9734C13.5271 49.9734 3.27639 40.9674 3.27639 29.8587C3.27639 26.7903 4.03981 23.8441 5.54417 21.1036L5.54421 21.1035C5.67297 20.8692 5.96691 20.7838 6.20125 20.9121L6.20146 20.9122C6.43572 21.041 6.52116 21.3352 6.39278 21.5694L6.39274 21.5694C4.96672 24.1671 4.24436 26.9556 4.24436 29.8587C4.24436 40.3983 14.0239 49.0054 26.0863 49.0054C28.0366 49.0054 29.9836 48.775 31.8729 48.3209L31.8729 48.3208C31.9608 48.2998 32.0522 48.3041 32.1368 48.3316L32.1374 48.3318L45.2193 52.638L45.1724 52.7804L45.2194 52.638C45.4465 52.7128 45.6762 52.6544 45.8406 52.4801C46.0046 52.3058 46.0491 52.0729 45.9608 51.8505L42.4333 42.9614C42.3619 42.7821 42.4043 42.5776 42.5401 42.4411L42.5401 42.4411C46.0165 38.9508 47.9279 34.482 47.9279 29.8587C47.9279 19.3193 38.1486 10.7122 26.0861 10.7122C19.0147 10.7122 12.351 13.7378 8.25827 18.7958L7.50573 18.1873ZM7.50573 18.1873C7.33759 18.3951 7.36991 18.6998 7.57766 18.8678M7.50573 18.1873L7.57766 18.8678M7.57766 18.8678C7.78504 19.036 8.09012 19.0039 8.25819 18.7959L7.57766 18.8678Z" fill="black" stroke="black" stroke-width="0.3"/>
<path d="M38.8369 20.9314H13.1158C12.876 20.9314 12.6819 21.1255 12.6819 21.3654C12.6819 21.6052 12.876 21.7993 13.1158 21.7993H38.8369C39.0767 21.7993 39.2709 21.6052 39.2709 21.3654C39.2709 21.1255 39.0764 20.9314 38.8369 20.9314Z" fill="black" stroke="black" stroke-width="0.2"/>
<path d="M42.4727 29.2102H10.4441C10.2043 29.2102 10.0101 29.4044 10.0101 29.6442C10.0101 29.884 10.2043 30.0781 10.4441 30.0781H42.4727C42.7126 30.0781 42.9067 29.884 42.9067 29.6442C42.9067 29.4043 42.7123 29.2102 42.4727 29.2102Z" fill="black" stroke="black" stroke-width="0.2"/>
<path d="M38.8369 37.4889H13.1158C12.876 37.4889 12.6819 37.683 12.6819 37.9229C12.6819 38.1627 12.876 38.3568 13.1158 38.3568H38.8369C39.0767 38.3568 39.2709 38.1627 39.2709 37.9229C39.2709 37.683 39.0764 37.4889 38.8369 37.4889Z" fill="black" stroke="black" stroke-width="0.2"/>
<path d="M36.6019 34.0386L32.6295 41.1188L36.3208 43.1898L40.2932 36.1097L36.6019 34.0386Z" fill="white"/>
<path d="M40.6149 36.0167C40.5911 35.9315 40.5341 35.8591 40.4568 35.8159L36.7652 33.7452C36.604 33.6546 36.4007 33.7122 36.3105 33.873L32.3383 40.9535C32.2949 41.0307 32.284 41.122 32.308 41.2073C32.3319 41.2926 32.3889 41.3649 32.4661 41.4081L36.1578 43.4788C36.2094 43.5078 36.2655 43.5216 36.3208 43.5216C36.4376 43.5216 36.5512 43.4601 36.6124 43.3508L40.5846 36.2703C40.628 36.1933 40.6389 36.102 40.6149 36.0167ZM36.1934 42.7329L33.0842 40.9889L36.7295 34.4909L39.8387 36.2347L36.1934 42.7329Z" fill="black"/>
<path d="M48.298 13.1913L44.3258 20.2695L48.0174 22.3425L51.9896 15.262L48.298 13.1913Z" fill="white"/>
<path d="M52.3109 15.1716C52.2871 15.0863 52.2301 15.0142 52.1528 14.9708L48.4612 12.9C48.3002 12.8097 48.0967 12.8669 48.0065 13.0279L44.0343 20.1061C43.9441 20.2669 44.0013 20.4704 44.1621 20.5608L47.8537 22.6337C47.9041 22.662 47.9606 22.6764 48.0172 22.6764C48.0475 22.6764 48.078 22.6722 48.1076 22.664C48.1929 22.6401 48.2652 22.5831 48.3084 22.5059L52.2806 15.4254C52.3242 15.3482 52.3349 15.2569 52.3109 15.1716ZM47.8896 21.8878L44.7804 20.1419L48.4258 13.6462L51.5347 15.39L47.8896 21.8878Z" fill="black"/>
<path d="M44.3255 20.2706L42.4583 23.5989L40.7822 26.5861L36.6018 34.0364L40.2941 36.1079L48.0178 22.3422L44.3255 20.2706Z" fill="black"/>
<path d="M48.1812 22.051L44.4891 19.9794C44.3284 19.8888 44.1246 19.9462 44.0345 20.1072L42.167 23.4354C42.0769 23.5962 42.1341 23.7999 42.2948 23.8901C42.4554 23.9803 42.6591 23.9228 42.7495 23.7623L44.4535 20.7253L47.5631 22.47L40.1662 35.6533L37.0566 33.9085L41.0734 26.7497C41.1635 26.5889 41.1063 26.3852 40.9455 26.295C40.7848 26.2046 40.5811 26.2618 40.4909 26.4228L36.3107 33.8729C36.2673 33.9502 36.2564 34.0414 36.2805 34.1267C36.3043 34.212 36.3613 34.2841 36.4385 34.3276L40.1306 36.3992C40.1809 36.4274 40.2373 36.4419 40.2941 36.4419C40.3243 36.4419 40.3548 36.4379 40.3845 36.4294C40.4697 36.4056 40.5421 36.3486 40.5853 36.2714L48.309 22.5056C48.3992 22.3449 48.342 22.1411 48.1812 22.051Z" fill="black"/>
<path d="M51.9256 11.051C50.906 10.479 49.6158 10.8417 49.0437 11.8612L48.2979 13.1907L51.9899 15.2623L52.7358 13.9328C53.3081 12.9135 52.9451 11.6232 51.9256 11.051Z" fill="black"/>
<path d="M52.0891 10.7598C50.9105 10.099 49.4138 10.5196 48.7526 11.6979L48.0067 13.0274C47.9632 13.1046 47.9523 13.1959 47.9764 13.2812C48.0002 13.3665 48.0572 13.4388 48.1345 13.482L51.8265 15.5536C51.8782 15.5826 51.9343 15.5964 51.9895 15.5964C52.1064 15.5964 52.22 15.5349 52.2812 15.4256L53.0271 14.0961C53.6884 12.9178 53.2676 11.4211 52.0891 10.7598ZM52.4449 13.7697L51.8624 14.8079L48.7528 13.0632L49.3352 12.025C49.8164 11.1677 50.9056 10.8616 51.7624 11.3425C52.6196 11.8235 52.9258 12.9122 52.4449 13.7697Z" fill="black"/>
<path d="M32.6297 41.1161L32.4574 44.7282C32.4353 45.188 32.9476 45.4755 33.3286 45.2172L36.3218 43.1877L32.6297 41.1161Z" fill="white"/>
<path d="M36.4851 42.8965L32.793 40.8249C32.6919 40.7684 32.569 40.7679 32.4677 40.824C32.3664 40.8801 32.3014 40.9846 32.2961 41.1003L32.1237 44.7125C32.1075 45.0523 32.2818 45.3669 32.5784 45.5334C32.7155 45.6105 32.8658 45.6485 33.0157 45.6485C33.1905 45.6485 33.3646 45.5967 33.516 45.494L36.5092 43.4645C36.6049 43.3995 36.6603 43.2895 36.6555 43.1739C36.6503 43.0579 36.586 42.9531 36.4851 42.8965ZM33.141 44.9407C33.0375 45.0111 32.942 44.9712 32.905 44.9505C32.8687 44.9303 32.7848 44.8692 32.7908 44.7441L32.9373 41.6717L35.6869 43.2145L33.141 44.9407Z" fill="black"/>
<path d="M52.1534 14.9712C51.9924 14.8808 51.7889 14.9382 51.6987 15.099C51.6086 15.2597 51.6658 15.4635 51.8265 15.5536C52.8118 16.1065 53.1636 17.3578 52.6107 18.3429L46.0426 30.0488C45.9524 30.2095 46.0097 30.4133 46.1704 30.5034C46.2221 30.5324 46.2782 30.5462 46.3334 30.5462C46.4503 30.5462 46.5638 30.4847 46.6251 30.3754L53.1932 18.6695C53.9264 17.3634 53.46 15.7042 52.1534 14.9712Z" fill="black"/>
<path d="M42.5734 42.907C42.5244 42.7823 42.5533 42.642 42.6468 42.5463C46.1492 39.0305 48.0774 34.524 48.0774 29.8593C48.0774 29.2225 48.0418 28.5946 47.9728 27.9734L46.6257 30.3759C46.5634 30.485 46.4498 30.5473 46.334 30.5473C46.2784 30.5473 46.2227 30.5317 46.1715 30.5028C46.009 30.4137 45.9533 30.2089 46.0423 30.0486L47.8169 26.8869C47.6722 26.0653 47.4651 25.2592 47.2046 24.4733L44.7198 28.9064C44.7376 29.2225 44.7465 29.5387 44.7465 29.8593C44.7465 34.524 42.8161 39.0305 39.3137 42.5463C39.2202 42.642 39.1912 42.7823 39.2402 42.907L42.7671 51.7954C42.796 51.8644 42.8116 51.9357 42.8183 52.0047L45.1718 52.7796C45.4545 52.8731 45.7462 52.7996 45.9488 52.5836C46.1537 52.3676 46.2093 52.0715 46.1002 51.7954L42.5734 42.907Z" fill="black"/>
</svg>
